<svg xmlns="http://www.w3.org/2000/svg" width="512" height="512" viewBox="0 0 25.66 25.66" enable-background="new 0 0 25.66 25.66"><g fill="#53c0fe"><path d="M6.36 8.5c-.18-.6-.35-1.18-.48-1.75-.83-.5-1.4-1.4-1.4-2.44 0-1.55 1.27-2.82 2.83-2.82s2.85 1.27 2.85 2.83c0 .23-.03.43-.08.64.27.6.5 1.26.7 1.95.53-.73.86-1.62.86-2.6C11.63 1.94 9.7 0 7.3 0s-4.3 1.93-4.3 4.3c0 2.07 1.44 3.77 3.36 4.2zM3.38 18.72c1.06-1.15 2.25-.7 3.85-.45 1.37.2 2.72-.18 2.63-.92-.14-1.2-.34-1.74-.8-3.3-.36-1.22-1.05-3.45-1.67-5.58-.85-2.84-1.1-4.17.02-4.5 1.2-.35 1.9 1.37 2.52 3.74.72 2.7 1.1 3.9 1.3 3.84.37-.1-.13-1.26.84-1.55 1.2-.36 1.44.6 1.78.5.34-.1.22-1.07 1.2-1.35.96-.28 1.44.9 1.84.8.4-.12.4-.55 1-.72.6-.18 2.84.83 4.13 5.24 1.62 5.54-.2 6.57.35 8.44l-7.23 2.76c-.58-1.4-2.4-1.5-4-2.4-1.6-.92-2.7-2.7-6.92-2.6-1.58.03-1.5-1.23-.85-1.94z" class="active-path"/></g></svg>